<?xml version="1.0" encoding="UTF-8"?> <svg xmlns="http://www.w3.org/2000/svg" width="1082" height="453" viewBox="0 0 1082 453" fill="none"><path d="M421.3 181.2H469.8V50H534V5H421.3V181.2Z" fill="#8654CC"></path><path d="M320.8 141.9C297.1 141.9 282.3 126.6 280.9 101.6H355H355.3H401.4C401.4 101.6 402.2 92.5 402.2 83.2C402.2 30.3 370.7 0.600006 321.4 0.600006C269.3 0.600006 233.1 38.6 233.1 92.7C233.1 147.6 268.8 185.3 320.9 185.3C369.2 185.3 401.7 157.4 402.7 116.3H354.4C351.5 132.6 339.7 141.9 320.8 141.9ZM321.3 41.5C340.8 41.5 352.4 49.9 355.6 67.7H283.5C289.1 51 302.7 41.5 321.3 41.5Z" fill="#8654CC"></path><path d="M147.7 5L114.2 112.9L81.7 5H28.0999L0.199951 181.2H44.7L61.7 71.6L94.5999 181.2H132.8L166.8 69.6L183.2 181.2H228.5L200.5 5H147.7Z" fill="#8654CC"></path><path d="M623.1 0.700012C571.2 0.700012 541.8 26.1 543.1 69.4H593.4C593.7 51 603 42.2 623.1 42.2C637.4 42.2 646.5 48.2 646.5 57.3C646.5 63.1 644.2 65.4 635.4 67.9L594.9 79C556.1 89.6 538.8 105.7 538.8 132.6C538.8 164.1 561.7 185.2 595.4 185.2C621.6 185.2 638.7 174.6 647.3 154.7V181.1H693.9V64.1C693.9 21.6 666.9 0.700012 623.1 0.700012ZM605.8 144.4C593.5 144.4 587.4 138.4 587.4 129.6C587.4 121.3 591.7 116 605 112.2L647 100.4V103.7C647 126.3 629.2 144.4 605.8 144.4Z" fill="#8654CC"></path><path d="M932.7 228.1V273.2H983.1V404.3H1031.7V273.2H1082V228.1H932.7Z" fill="#8654CC"></path><path d="M757.8 228.1H704.2L666.4 293.6H647V228.1H598.5V404.3H647V336.9H666.1L706.7 404.3H761.6L708 314.5L757.8 228.1Z" fill="#8654CC"></path><path d="M323.9 223.9C272 223.9 242.6 249.3 243.9 292.6H294.2C294.5 274.2 303.8 265.4 323.9 265.4C338.2 265.4 347.3 271.4 347.3 280.5C347.3 286.3 345 288.6 336.2 291.1L295.7 302.2C256.9 312.8 239.6 328.9 239.6 355.8C239.6 387.3 262.5 408.4 296.2 408.4C322.4 408.4 339.5 398.1 348.1 377.9V404.3H394.7V287.3C394.6 244.7 367.7 223.9 323.9 223.9ZM306.2 367.6C294.1 367.6 288.1 361.6 288.1 352.7C288.1 344.4 292.4 339.4 305.7 335.6L347.7 323.8V326.8C347.8 350.7 329.9 367.6 306.2 367.6Z" fill="#8654CC"></path><path d="M513.4 223.9C490.1 223.9 472.7 235.7 465.8 254.6V228.2H417.2V452.5H465.8V378.5C473 397.2 490.3 408.4 513.4 408.4C553.7 408.4 580.6 377.2 580.6 316.3C580.6 255.3 553.7 223.9 513.4 223.9ZM499.8 363.3C478.2 363.3 465.1 348.2 465.1 316.2C465.1 284.5 478.4 268.9 500.3 268.9C520.9 268.9 533.3 284.3 533.3 316.2C533.3 349.5 521.4 363.3 499.8 363.3Z" fill="#8654CC"></path><path d="M147.7 228.1L114.2 336.1L81.7 228.1H28.0999L0.199951 404.3H44.7L61.7 294.7L94.5999 404.3H132.8L166.8 292.8L183.2 404.3H228.5L200.5 228.1H147.7Z" fill="#8654CC"></path><path d="M840.6 365.1C817.1 365.1 802.1 349.8 800.7 324.8H874.8H875.1H921.2C921.2 324.8 922 315.7 922 306.4C922 253.5 890.5 223.8 841.2 223.8C789.1 223.8 752.9 261.8 752.9 315.9C752.9 370.8 788.6 408.5 840.7 408.5C889 408.5 921.5 380.6 922.5 339.5H874.2C871.3 355.7 859.5 365.1 840.6 365.1ZM841.1 264.6C860.6 264.6 872.2 273 875.4 290.8H803.3C808.8 274.2 822.4 264.6 841.1 264.6Z" fill="#8654CC"></path></svg> 